inDegrees=yes
name=ik_lifting_orientations
DataType=double
version=3
OpenSimVersion=4.5-2024-01-10-34fd6af
endheader
time	pelvis_tilt	pelvis_list	pelvis_rotation	pelvis_tx	pelvis_ty	pelvis_tz	hip_flexion_r	hip_adduction_r	hip_rotation_r	knee_angle_r	knee_angle_r_beta	ankle_angle_r	subtalar_angle_r	mtp_angle_r	hip_flexion_l	hip_adduction_l	hip_rotation_l	knee_angle_l	knee_angle_l_beta	ankle_angle_l	subtalar_angle_l	mtp_angle_l	lumbar_extension	lumbar_bending	lumbar_rotation	arm_flex_r	arm_add_r	arm_rot_r	elbow_flex_r	pro_sup_r	wrist_flex_r	wrist_dev_r	arm_flex_l	arm_add_l	arm_rot_l	elbow_flex_l	pro_sup_l	wrist_flex_l	wrist_dev_l
0.87	1.385481986426977	-2.808164040083217	-96.35578347358802	0	0.9399999998679526	0	36.02281840475761	-10.32411996861307	0	61.56486207732244	1.074509546785472	-5.189457670237783	0	0	36.02281840475761	-10.32411996861307	0	61.56486207732244	1.074509546785472	-5.189457670237783	0	0	8.551701472607604	1.999776259869199	3.621920747085352	15.55987522598342	58.11132901947073	25.83390592161161	144.3697035213934	1.236239744937816	0	0	0	-7.416431666843391	0	90.08129768445063	1.236239744937816	0	0
0.88	1.380846667586194	-2.815949585388402	-96.36840860543195	0	0.9399999998679526	0	36.06533089558721	-10.32003240007824	0	61.55792462439368	1.074388465390163	-5.186507811612771	0	0	36.06533089558721	-10.32003240007824	0	61.55792462439368	1.074388465390163	-5.186507811612771	0	0	7.080559375105765	1.487922247588898	3.237012505225692	19.9517492883837	60.93666753607814	23.41297844191742	145.2766572026129	1.231893998232077	0	0	0	-7.437304401075424	0	90.08101168955703	1.231893998232077	0	0
0.89	1.382366158110967	-2.806356739348511	-96.35719754614952	0	0.9399999998679526	0	36.19930843169124	-10.30814716680156	0	61.53520395227356	1.073991914853401	-5.178122619236905	0	0	36.19930843169124	-10.30814716680156	0	61.53520395227356	1.073991914853401	-5.178122619236905	0	0	7.097890619565653	1.479764934504449	3.226292362589801	32.71964299745175	64.07500823084516	12.09688653468038	140.4607618903093	1.217939350754861	0	0	0	-7.505159533180143	0	90.08009331495786	1.217939350754861	0	0
0.9	1.381956813939742	-2.809279926589288	-96.35673465891186	0	0.9399999998679526	0	36.26726150054193	-10.30198624885895	0	61.52395666834923	1.073795612717015	-5.173760611120312	0	0	36.26726150054193	-10.30198624885895	0	61.52395666834923	1.073795612717015	-5.173760611120312	0	0	5.632126483614114	0.9625822346991042	2.820994800402347	41.92550780713084	66.17659692059543	4.411925059908835	138.4209994429109	1.210910429599574	0	0	0	-7.539169938393022	0	90.07963073478803	1.210910429599574	0	0
0.91	1.388785806227888	-2.808638678138014	-96.35672955007115	0	0.9399999998679526	0	36.38025611157092	-10.29199469475258	0	61.50504962172621	1.073465622501615	-5.166738102929755	0	0	36.38025611157092	-10.29199469475258	0	61.50504962172621	1.073465622501615	-5.166738102929755	0	0	5.632499171543576	0.9477099164890446	2.812605951566993	56.4999781859905	66.95540691864755	-9.767545615436793	134.4100379111318	1.199154482505528	0	0	0	-7.596270739588196	0	90.07885706043947	1.199154482505528	0	0
0.92	1.384661264812543	-2.811123813962448	-96.34417404301401	0	0.9399999998679526	0	36.39389883492903	-10.29040023991151	0	61.50320655516909	1.07343345492186	-5.165550856401684	0	0	36.39389883492903	-10.29040023991151	0	61.50320655516909	1.07343345492186	-5.165550856401684	0	0	4.568101912754292	0.1695737702373228	4.014273246388449	67.71092102089506	65.57836605884866	-19.28629464738562	132.6474592103438	1.197851652255084	0	0	0	-7.602214621365814	0	90.07877132589516	1.197851652255084	0	0
0.93	1.272030667216804	-1.978638800236409	-96.40848236729143	0	0.9399999998679526	0	36.40907384765159	-10.28863371710594	0	61.50115572786439	1.073397661233003	-5.164237760947752	0	0	36.40907384765159	-10.28863371710594	0	61.50115572786439	1.073397661233003	-5.164237760947752	0	0	4.113790655215247	-1.125547919892469	4.169815350850826	79.20813686415809	65.71281582180092	-29.52276545934076	130.3960204954627	1.196401709911142	0	0	0	-7.60883146389111	0	90.07867591038195	1.196401709911142	0	0
0.9399999999999999	1.271994913116581	-1.992743650647914	-96.39856963374866	0	0.9399999998679526	0	36.42227560259403	-10.28710165941869	0	61.49937251143559	1.073366538235045	-5.163100782307703	0	0	36.42227560259403	-10.28710165941869	0	61.49937251143559	1.073366538235045	-5.163100782307703	0	0	2.980579072506726	-0.9655489266591711	4.981650410271842	86.61914536837941	64.08675701912202	-35.23308932964323	127.5226270046624	1.195140056733662	0	0	0	-7.614589035803535	0	90.07859288548256	1.195140056733662	0	0
0.95	1.264738369970966	-1.986529126466069	-96.41597299917653	0	0.9399999998679526	0	36.43565413119097	-10.28555264485204	0	61.49756642255004	1.073335016037409	-5.161952662579326	0	0	36.43565413119097	-10.28555264485204	0	61.49756642255004	1.073335016037409	-5.161952662579326	0	0	1.937713899711333	-1.899020114769997	3.579090497889216	93.73434669237351	64.04488754025071	-41.74649724045508	124.8090416274166	1.193861360124382	0	0	0	-7.620424222907904	0	90.07850873899946	1.193861360124382	0	0
0.96	0.677263769787297	-1.409163180250146	-97.59465081846336	0	0.9399999998679526	0	36.47948010602646	-10.2816351122864	0	61.49040471583498	1.073210020675169	-5.159204954921736	0	0	36.47948010602646	-10.2816351122864	0	61.49040471583498	1.073210020675169	-5.159204954921736	0	0	1.696457005932487	-1.457298959482476	4.404048580955194	101.4811534927165	62.24430704816559	-48.40629359465196	121.2096297218542	1.189328957393147	0	0	0	-7.642337001113726	0	90.07821045714408	1.189328957393147	0	0
0.97	0.6725747387197578	-1.410869309652459	-97.59519504488426	0	0.9399999998679526	0	36.49980262667256	-10.27933666320094	0	61.48764221710019	1.073161805976664	-5.157515137914024	0	0	36.49980262667256	-10.27933666320094	0	61.48764221710019	1.073161805976664	-5.157515137914024	0	0	1.698544972289621	-1.455881998335971	4.399190152563879	105.901206829778	60.10754909534369	-52.1788448930364	116.4751182960551	1.187377346290744	0	0	0	-7.651269635037208	0	90.07808202795138	1.187377346290744	0	0
0.98	-0.3297896817921469	-1.412893349034631	-97.06369132740824	0	0.9399999998679526	0	36.50894008602329	-10.27830334867098	0	61.48640099163035	1.073140142505456	-5.156755698203305	0	0	36.50894008602329	-10.27830334867098	0	61.48640099163035	1.073140142505456	-5.156755698203305	0	0	0.848166345891619	-0.735422629161701	3.68902542242506	110.1545171330209	58.72523581754469	-55.55059466754314	114.3531386899465	1.186499908971998	0	0	0	-7.655285530326918	0	90.07802428664282	1.186499908971998	0	0
0.99	-0.314955851732688	-1.404017255623154	-97.05568073778447	0	0.9399999998679526	0	36.52461804519911	-10.27654778018361	0	61.4842645977982	1.073102855398966	-5.155469959441573	0	0	36.52461804519911	-10.27654778018361	0	61.4842645977982	1.073102855398966	-5.155469959441573	0	0	0.8458097544224611	-0.7475978817570452	3.674749287961999	113.6319866969472	56.64740303322239	-57.83813637038801	109.3564718842173	1.184991651297234	0	0	0	-7.662196369493864	0	90.07792503292896	1.184991651297234	0	0
1	-0.420165530272919	-0.5762743945874854	-97.09480553566307	0	0.9399999998679526	0	36.58463285705896	-10.27142213218911	0	61.47447779322143	1.072932043435852	-5.151945850851775	0	0	36.58463285705896	-10.27142213218911	0	61.47447779322143	1.072932043435852	-5.151945850851775	0	0	0.9025442637087572	-0.7929310215903762	3.420600531503301	120.220273766698	53.56433294527324	-63.27512126525904	103.5184160762285	1.178751887616401	0	0	0	-7.692441055483311	0	90.07751438645043	1.178751887616401	0	0
1.01	-0.4213020300721797	-0.5733341660808186	-97.10318221197053	0	0.9399999998679526	0	36.59628976067064	-10.27017615272096	0	61.47277660051983	1.072902352021998	-5.151038355566072	0	0	36.59628976067064	-10.27017615272096	0	61.47277660051983	1.072902352021998	-5.151038355566072	0	0	0.1822810104133835	-1.050808449963183	3.267590115061148	122.9989916492118	51.68065469787115	-65.05539778524953	101.1023488426133	1.177606711165399	0	0	0	-7.697778163110311	0	90.07743902441739	1.177606711165399	0	0
1.02	-0.4233304612112873	-0.5727101775308761	-97.08793455006179	0	0.9399999998679526	0	36.6128374658924	-10.26836898812546	0	61.47051005202076	1.072862793288033	-5.149726746844742	0	0	36.6128374658924	-10.26836898812546	0	61.47051005202076	1.072862793288033	-5.149726746844742	0	0	-0.5738387203443659	-1.285412551719989	2.961773502023281	126.2190530088546	49.93160941365991	-67.00189049976987	97.38873849642549	1.176007294735409	0	0	0	-7.705127489187424	0	90.07733377132911	1.176007294735409	0	0
1.03	-0.439780468397338	-0.5718766851781281	-97.08224368282858	0	0.9399999998679526	0	36.61552695737256	-10.26807572532984	0	61.4701407448087	1.072856347661231	-5.149513900692558	0	0	36.61552695737256	-10.26807572532984	0	61.4701407448087	1.072856347661231	-5.149513900692558	0	0	-0.5490822468412431	-1.201940495912085	2.958589631270775	126.3614221390106	48.61665461838655	-66.60016067456772	93.99705666759519	1.175747077924116	0	0	0	-7.706324260442871	0	90.0773166471762	1.175747077924116	0	0
1.04	-0.4220435945806437	-0.57418369508994	-97.08773589311498	0	0.9399999998679526	0	36.62867698803802	-10.26663191606216	0	61.46835134544876	1.072825116750767	-5.148465626265366	0	0	36.62867698803802	-10.26663191606216	0	61.46835134544876	1.072825116750767	-5.148465626265366	0	0	-0.3544096534680647	-0.6682298698917843	1.494342175214647	127.898855497383	48.76382130032993	-68.57516701401894	90.99206167427522	1.174478971722476	0	0	0	-7.712140442474071	0	90.077233196835	1.174478971722476	0	0
1.05	-0.4147821988171307	-0.5687572601952389	-97.0827651173711	0	0.9399999998679526	0	36.63495097151187	-10.26594698423398	0	61.46749351253115	1.072810144741923	-5.147968923903257	0	0	36.63495097151187	-10.26594698423398	0	61.46749351253115	1.072810144741923	-5.147968923903257	0	0	-1.833152102170383	-1.143308127910692	1.029509754957841	131.8693889597301	46.75527138049215	-70.81720550806216	86.94270862275984	1.173872705142325	0	0	0	-7.714925624643163	0	90.07719330013667	1.173872705142325	0	0
1.06	-0.9917713235711882	-0.7494709691647403	-98.07399429192024	0	0.9399999998679526	0	36.65120674011175	-10.26417762186291	0	61.4652773235205	1.072771464946841	-5.146688660570406	0	0	36.65120674011175	-10.26417762186291	0	61.4652773235205	1.072771464946841	-5.146688660570406	0	0	-2.078475127663915	-0.6248186873708388	2.040122188214497	133.8489427636109	44.28570971630658	-71.68398958040196	82.58364467113984	1.172302843666542	0	0	0	-7.722131853879786	0	90.07708999202821	1.172302843666542	0	0
1.07	-0.973530976221237	-0.001282495109087751	-98.23661017582816	0	0.9399999998679526	0	36.7092445600877	-10.25970511130219	0	61.45530539709143	1.072597421997887	-5.143698938678579	0	0	36.7092445600877	-10.25970511130219	0	61.45530539709143	1.072597421997887	-5.143698938678579	0	0	-1.353448430467101	-0.5622746975825342	2.200419931256392	134.9457254092626	43.67625822715721	-72.18427275557326	78.15036486099953	1.166120007698916	0	0	0	-7.752594330943555	0	90.07668308403105	1.166120007698916	0	0
1.08	-0.9872186784232391	0.007000625657034566	-98.25305043876052	0	0.9399999998679526	0	36.71508092651302	-10.25907391493341	0	61.45451118908725	1.072583560453268	-5.143243433869379	0	0	36.71508092651302	-10.25907391493341	0	61.45451118908725	1.072583560453268	-5.143243433869379	0	0	-1.52617044322811	0.4917067853440399	1.753876742952846	134.2100999928478	43.70889163834958	-70.92098479898399	75.72192742014195	1.16555577907324	0	0	0	-7.755185705642783	0	90.07664595369123	1.16555577907324	0	0
1.09	-0.006005643252072898	-0.006939105976013093	-98.80988072958311	0	0.9399999998679526	0	36.72070288319095	-10.25846769732682	0	61.45374516518776	1.072570190814073	-5.142806375751851	0	0	36.72070288319095	-10.25846769732682	0	61.45374516518776	1.072570190814073	-5.142806375751851	0	0	-0.9686115865462851	-0.8856580950409412	1.299972644029052	134.7468504166301	44.13634892182547	-72.29364765502922	75.73191625132371	1.165011907057225	0	0	0	-7.757684773796834	0	90.07661016294178	1.165011907057225	0	0
1.1	-0.0007246034945230864	-0.002011491403349563	-98.80921077265691	0	0.9399999998679526	0	36.74427024412529	-10.256286779506	0	61.45049378833373	1.072513443582747	-5.141333490502368	0	0	36.74427024412529	-10.256286779506	0	61.45049378833373	1.072513443582747	-5.141333490502368	0	0	-0.9660786703557865	-0.878249512865252	1.294561104979461	134.7381471462519	44.14523862535063	-72.28181904052286	75.72475579989081	1.162684242904793	0	0	0	-7.768491567148396	0	90.07645698241278	1.162684242904793	0	0
